<svg xmlns="http://www.w3.org/2000/svg" xmlns:xlink="http://www.w3.org/1999/xlink" width="200" zoomAndPan="magnify" viewBox="0 0 150 37.5" height="50" preserveAspectRatio="xMidYMid meet" version="1.0"><defs><g/><clipPath id="e561c37e71"><path d="M 63 13 L 101 13 L 101 20 L 63 20 Z M 63 13 " clip-rule="nonzero"/></clipPath><clipPath id="3a27c55bb1"><path d="M 63 13.3125 L 100.660156 10.789062 L 101.15625 18.175781 L 63.492188 20.695312 Z M 63 13.3125 " clip-rule="nonzero"/></clipPath><clipPath id="eaeb43f5eb"><path d="M 63.515625 21.007812 L 101.175781 18.488281 L 100.683594 11.101562 L 63.019531 13.625 Z M 63.515625 21.007812 " clip-rule="nonzero"/></clipPath></defs><g fill="#ffffff" fill-opacity="1"><g transform="translate(46.899563, 24.867355)"><g><path d="M 23.015625 3.71875 C 23.046875 3.789062 23.066406 3.863281 23.078125 3.9375 C 23.085938 4.039062 23.039062 4.109375 22.9375 4.140625 C 22.613281 4.253906 22.367188 4.171875 22.203125 3.890625 C 22.078125 3.679688 21.96875 3.460938 21.875 3.234375 C 21.644531 2.703125 21.441406 2.160156 21.265625 1.609375 C 21.085938 1.054688 20.925781 0.5 20.78125 -0.0625 C 20.644531 -0.550781 20.515625 -1.039062 20.390625 -1.53125 C 20.304688 -1.875 20.21875 -2.222656 20.125 -2.578125 C 20.082031 -2.753906 20.03125 -2.863281 19.96875 -2.90625 C 19.914062 -2.945312 19.800781 -2.960938 19.625 -2.953125 C 19.0625 -2.921875 18.5 -2.882812 17.9375 -2.84375 C 17.34375 -2.8125 16.75 -2.785156 16.15625 -2.765625 C 16.007812 -2.753906 15.898438 -2.710938 15.828125 -2.640625 C 15.753906 -2.566406 15.703125 -2.460938 15.671875 -2.328125 C 15.304688 -0.953125 14.878906 0.398438 14.390625 1.734375 C 14.054688 2.617188 13.691406 3.488281 13.296875 4.34375 C 12.898438 5.195312 12.441406 6.015625 11.921875 6.796875 C 11.453125 7.503906 10.898438 8.140625 10.265625 8.703125 C 9.628906 9.253906 8.910156 9.625 8.109375 9.8125 C 6.992188 10.070312 5.941406 9.9375 4.953125 9.40625 C 4.347656 9.070312 3.816406 8.65625 3.359375 8.15625 C 1.835938 6.5 0.773438 4.578125 0.171875 2.390625 C 0.0546875 1.992188 0 1.585938 0 1.171875 L 0 1.15625 C 0 1.070312 0.00390625 0.984375 0.015625 0.890625 C 0.078125 -0.078125 0.53125 -0.796875 1.375 -1.265625 C 1.695312 -1.441406 2.03125 -1.582031 2.375 -1.6875 C 2.71875 -1.789062 3.066406 -1.867188 3.421875 -1.921875 C 4.503906 -2.085938 5.582031 -2.234375 6.65625 -2.359375 C 8.375 -2.546875 10.101562 -2.722656 11.84375 -2.890625 C 12.445312 -2.941406 13.046875 -2.988281 13.640625 -3.03125 C 13.929688 -3.050781 14.21875 -3.070312 14.5 -3.09375 C 14.695312 -3.101562 14.828125 -3.128906 14.890625 -3.171875 C 14.960938 -3.222656 15.019531 -3.34375 15.0625 -3.53125 C 15.164062 -3.914062 15.269531 -4.304688 15.375 -4.703125 C 16.070312 -7.765625 16.625 -10.851562 17.03125 -13.96875 C 17.3125 -15.90625 17.53125 -17.847656 17.6875 -19.796875 C 17.726562 -20.398438 17.753906 -21.007812 17.765625 -21.625 C 17.773438 -21.90625 17.789062 -22.179688 17.8125 -22.453125 C 17.8125 -22.492188 17.8125 -22.535156 17.8125 -22.578125 C 17.8125 -22.660156 17.816406 -22.738281 17.828125 -22.8125 C 17.828125 -22.96875 17.863281 -23.078125 17.9375 -23.140625 C 18.007812 -23.203125 18.125 -23.234375 18.28125 -23.234375 C 18.4375 -23.242188 18.550781 -23.21875 18.625 -23.15625 C 18.695312 -23.09375 18.734375 -22.976562 18.734375 -22.8125 C 18.734375 -22.257812 18.734375 -21.6875 18.734375 -21.09375 C 18.734375 -20.84375 18.734375 -20.585938 18.734375 -20.328125 C 18.765625 -18.742188 18.851562 -17.117188 19 -15.453125 C 19.15625 -13.578125 19.363281 -11.707031 19.625 -9.84375 C 19.882812 -7.90625 20.226562 -5.988281 20.65625 -4.09375 C 20.675781 -4 20.695312 -3.910156 20.71875 -3.828125 C 20.738281 -3.773438 20.757812 -3.71875 20.78125 -3.65625 C 20.820312 -3.5 20.925781 -3.429688 21.09375 -3.453125 C 21.457031 -3.460938 21.820312 -3.46875 22.1875 -3.46875 C 22.363281 -3.488281 22.523438 -3.457031 22.671875 -3.375 C 22.734375 -3.332031 22.765625 -3.269531 22.765625 -3.1875 C 22.753906 -3.144531 22.734375 -3.113281 22.703125 -3.09375 C 22.671875 -3.070312 22.640625 -3.0625 22.609375 -3.0625 C 22.429688 -3.050781 22.253906 -3.046875 22.078125 -3.046875 C 21.992188 -3.035156 21.910156 -3.03125 21.828125 -3.03125 C 21.773438 -3.03125 21.726562 -3.03125 21.6875 -3.03125 C 21.539062 -3.03125 21.394531 -3.03125 21.25 -3.03125 C 21.03125 -3.007812 20.945312 -2.890625 21 -2.671875 C 21.03125 -2.535156 21.066406 -2.394531 21.109375 -2.25 C 21.234375 -1.6875 21.375 -1.128906 21.53125 -0.578125 C 21.726562 0.148438 21.941406 0.875 22.171875 1.59375 C 22.410156 2.320312 22.691406 3.03125 23.015625 3.71875 Z M 14.71875 -2.234375 C 14.769531 -2.398438 14.773438 -2.507812 14.734375 -2.5625 C 14.691406 -2.625 14.585938 -2.644531 14.421875 -2.625 C 13.734375 -2.570312 13.039062 -2.507812 12.34375 -2.4375 C 12.207031 -2.425781 12.078125 -2.414062 11.953125 -2.40625 C 10.398438 -2.25 8.851562 -2.085938 7.3125 -1.921875 C 6.164062 -1.785156 5.015625 -1.632812 3.859375 -1.46875 C 3.335938 -1.394531 2.828125 -1.253906 2.328125 -1.046875 C 1.347656 -0.640625 0.867188 0.09375 0.890625 1.15625 C 0.890625 1.507812 0.929688 1.863281 1.015625 2.21875 C 1.117188 2.664062 1.253906 3.101562 1.421875 3.53125 C 1.597656 3.957031 1.789062 4.375 2 4.78125 C 2.539062 5.914062 3.242188 6.945312 4.109375 7.875 C 4.554688 8.363281 5.066406 8.765625 5.640625 9.078125 C 6.609375 9.585938 7.578125 9.582031 8.546875 9.0625 C 9.128906 8.75 9.640625 8.347656 10.078125 7.859375 C 10.742188 7.117188 11.3125 6.3125 11.78125 5.4375 C 12.75 3.601562 13.535156 1.6875 14.140625 -0.3125 C 14.335938 -0.945312 14.53125 -1.585938 14.71875 -2.234375 Z M 19.828125 -3.453125 C 19.835938 -3.460938 19.84375 -3.46875 19.84375 -3.46875 C 19.851562 -3.476562 19.859375 -3.488281 19.859375 -3.5 C 19.867188 -3.507812 19.867188 -3.515625 19.859375 -3.515625 C 19.117188 -7.023438 18.578125 -10.566406 18.234375 -14.140625 C 18.210938 -14.253906 18.191406 -14.367188 18.171875 -14.484375 C 18.160156 -14.503906 18.144531 -14.535156 18.125 -14.578125 C 18.101562 -14.585938 18.085938 -14.609375 18.078125 -14.640625 C 18.035156 -14.347656 17.988281 -14.050781 17.9375 -13.75 C 17.84375 -13.082031 17.742188 -12.421875 17.640625 -11.765625 C 17.492188 -10.804688 17.332031 -9.851562 17.15625 -8.90625 C 17.0625 -8.375 16.957031 -7.84375 16.84375 -7.3125 C 16.757812 -6.90625 16.679688 -6.492188 16.609375 -6.078125 C 16.523438 -5.671875 16.429688 -5.269531 16.328125 -4.875 C 16.191406 -4.351562 16.078125 -3.820312 15.984375 -3.28125 C 16.203125 -3.257812 16.5625 -3.253906 17.0625 -3.265625 C 17.570312 -3.273438 18.09375 -3.296875 18.625 -3.328125 C 19.15625 -3.367188 19.554688 -3.410156 19.828125 -3.453125 Z M 19.828125 -3.453125 "/></g></g></g><g fill="#ffffff" fill-opacity="1"><g transform="translate(70.141618, 24.867355)"><g><path d="M 3.4375 -3.09375 C 3.4375 -3.007812 3.253906 -2.851562 2.890625 -2.625 C 2.523438 -2.40625 2.253906 -2.238281 2.078125 -2.125 C 1.898438 -2.019531 1.8125 -1.953125 1.8125 -1.921875 C 1.851562 -1.847656 1.890625 -1.722656 1.921875 -1.546875 C 1.960938 -1.367188 1.976562 -1.175781 1.96875 -0.96875 C 1.957031 -0.757812 1.890625 -0.570312 1.765625 -0.40625 C 1.640625 -0.25 1.429688 -0.15625 1.140625 -0.125 C 0.847656 -0.09375 0.585938 -0.132812 0.359375 -0.25 C 0.128906 -0.363281 -0.0078125 -0.523438 -0.0625 -0.734375 C -0.125 -0.941406 -0.0546875 -1.191406 0.140625 -1.484375 C 0.273438 -1.640625 0.4375 -1.773438 0.625 -1.890625 C 0.6875 -1.929688 0.753906 -1.976562 0.828125 -2.03125 C 0.597656 -2.269531 0.382812 -2.515625 0.1875 -2.765625 C -0.0078125 -3.023438 -0.140625 -3.253906 -0.203125 -3.453125 C -0.265625 -3.679688 -0.222656 -3.894531 -0.078125 -4.09375 C 0.0546875 -4.300781 0.296875 -4.425781 0.640625 -4.46875 C 0.804688 -4.476562 0.960938 -4.46875 1.109375 -4.4375 C 1.253906 -4.40625 1.390625 -4.332031 1.515625 -4.21875 C 1.535156 -4.195312 1.550781 -4.171875 1.5625 -4.140625 C 1.570312 -4.109375 1.566406 -4.066406 1.546875 -4.015625 C 1.503906 -3.941406 1.441406 -3.90625 1.359375 -3.90625 C 1.296875 -3.90625 1.238281 -3.910156 1.1875 -3.921875 C 1.125 -3.953125 1.066406 -3.976562 1.015625 -4 C 0.984375 -4.019531 0.953125 -4.035156 0.921875 -4.046875 C 0.816406 -4.085938 0.734375 -4.082031 0.671875 -4.03125 C 0.609375 -3.976562 0.578125 -3.894531 0.578125 -3.78125 C 0.585938 -3.59375 0.664062 -3.390625 0.8125 -3.171875 C 0.96875 -2.953125 1.117188 -2.75 1.265625 -2.5625 C 1.328125 -2.5 1.378906 -2.4375 1.421875 -2.375 C 1.460938 -2.332031 1.570312 -2.335938 1.75 -2.390625 C 1.925781 -2.453125 2.25 -2.601562 2.71875 -2.84375 C 3.195312 -3.09375 3.4375 -3.175781 3.4375 -3.09375 Z M 0.90625 -0.546875 C 1.019531 -0.554688 1.09375 -0.613281 1.125 -0.71875 C 1.15625 -0.832031 1.164062 -0.957031 1.15625 -1.09375 C 1.144531 -1.226562 1.140625 -1.332031 1.140625 -1.40625 C 1.117188 -1.445312 1.085938 -1.472656 1.046875 -1.484375 C 1.015625 -1.492188 0.984375 -1.492188 0.953125 -1.484375 C 0.828125 -1.378906 0.734375 -1.25 0.671875 -1.09375 C 0.609375 -0.945312 0.613281 -0.816406 0.6875 -0.703125 C 0.707031 -0.660156 0.734375 -0.625 0.765625 -0.59375 C 0.804688 -0.570312 0.851562 -0.554688 0.90625 -0.546875 Z M 0.90625 -0.546875 "/></g></g></g><g fill="#ffffff" fill-opacity="1"><g transform="translate(73.197099, 24.867355)"><g><path d="M 5.546875 -2.75 C 5.867188 -3.101562 6.039062 -3.238281 6.0625 -3.15625 C 6.082031 -3.070312 6.015625 -2.878906 5.859375 -2.578125 C 5.703125 -2.273438 5.460938 -2.015625 5.140625 -1.796875 C 4.898438 -1.648438 4.691406 -1.550781 4.515625 -1.5 C 4.347656 -1.445312 4.191406 -1.421875 4.046875 -1.421875 C 3.773438 -1.398438 3.566406 -1.476562 3.421875 -1.65625 C 3.273438 -1.832031 3.171875 -2.054688 3.109375 -2.328125 C 3.054688 -2.597656 3.019531 -2.878906 3 -3.171875 C 2.96875 -3.359375 2.941406 -3.523438 2.921875 -3.671875 C 2.890625 -3.910156 2.820312 -4.039062 2.71875 -4.0625 C 2.613281 -4.082031 2.457031 -3.929688 2.25 -3.609375 C 2.039062 -3.265625 1.851562 -2.878906 1.6875 -2.453125 C 1.53125 -2.035156 1.390625 -1.628906 1.265625 -1.234375 C 1.253906 -1.210938 1.242188 -1.191406 1.234375 -1.171875 C 1.210938 -1.109375 1.191406 -1.046875 1.171875 -0.984375 C 1.117188 -0.828125 1.0625 -0.664062 1 -0.5 C 0.9375 -0.375 0.835938 -0.289062 0.703125 -0.25 C 0.566406 -0.207031 0.421875 -0.210938 0.265625 -0.265625 C 0.171875 -0.304688 0.109375 -0.378906 0.078125 -0.484375 C 0.0234375 -0.628906 0.00390625 -0.78125 0.015625 -0.9375 C 0.015625 -0.957031 0.015625 -0.972656 0.015625 -0.984375 C 0.0546875 -1.640625 0.0664062 -2.734375 0.046875 -4.265625 C 0.0234375 -5.484375 0.015625 -6.796875 0.015625 -8.203125 C 0.015625 -9.609375 0.0507812 -10.929688 0.125 -12.171875 C 0.195312 -13.421875 0.316406 -14.421875 0.484375 -15.171875 C 0.554688 -15.441406 0.679688 -15.6875 0.859375 -15.90625 C 1.035156 -16.125 1.226562 -16.242188 1.4375 -16.265625 C 1.644531 -16.285156 1.84375 -16.140625 2.03125 -15.828125 C 2.15625 -15.566406 2.234375 -15.285156 2.265625 -14.984375 C 2.347656 -14.097656 2.269531 -12.738281 2.03125 -10.90625 C 1.800781 -9.070312 1.5625 -7.46875 1.3125 -6.09375 C 1.0625 -4.71875 0.9375 -3.570312 0.9375 -2.65625 C 1.019531 -2.789062 1.101562 -2.9375 1.1875 -3.09375 C 1.300781 -3.332031 1.429688 -3.566406 1.578125 -3.796875 C 1.722656 -4.035156 1.894531 -4.234375 2.09375 -4.390625 C 2.289062 -4.554688 2.53125 -4.660156 2.8125 -4.703125 C 3.007812 -4.734375 3.207031 -4.71875 3.40625 -4.65625 C 3.601562 -4.601562 3.734375 -4.46875 3.796875 -4.25 C 3.878906 -3.863281 3.910156 -3.457031 3.890625 -3.03125 C 3.890625 -2.570312 3.96875 -2.28125 4.125 -2.15625 C 4.28125 -2.039062 4.476562 -2.019531 4.71875 -2.09375 C 4.957031 -2.175781 5.234375 -2.394531 5.546875 -2.75 Z M 1.328125 -14.46875 C 1.285156 -14 1.234375 -13.210938 1.171875 -12.109375 C 1.117188 -11.003906 1.070312 -9.894531 1.03125 -8.78125 C 1 -7.664062 0.984375 -6.742188 0.984375 -6.015625 C 1.078125 -6.671875 1.1875 -7.53125 1.3125 -8.59375 C 1.445312 -9.664062 1.5625 -10.765625 1.65625 -11.890625 C 1.757812 -13.023438 1.8125 -13.878906 1.8125 -14.453125 C 1.800781 -14.742188 1.773438 -14.960938 1.734375 -15.109375 C 1.703125 -15.253906 1.644531 -15.304688 1.5625 -15.265625 C 1.488281 -15.222656 1.429688 -15.117188 1.390625 -14.953125 C 1.347656 -14.785156 1.328125 -14.625 1.328125 -14.46875 Z M 1.328125 -14.46875 "/></g></g></g><g fill="#ffffff" fill-opacity="1"><g transform="translate(78.950926, 24.867355)"><g><path d="M 7.390625 -3.09375 C 7.421875 -3.09375 7.445312 -3.078125 7.46875 -3.046875 C 7.5 -3.023438 7.519531 -2.992188 7.53125 -2.953125 C 7.539062 -2.921875 7.519531 -2.894531 7.46875 -2.875 C 7.15625 -2.707031 6.78125 -2.640625 6.34375 -2.671875 C 5.90625 -2.703125 5.554688 -2.84375 5.296875 -3.09375 C 5.285156 -2.96875 5.265625 -2.84375 5.234375 -2.71875 C 5.191406 -2.4375 5.148438 -2.171875 5.109375 -1.921875 C 5.054688 -1.628906 4.957031 -1.347656 4.8125 -1.078125 C 4.625 -0.773438 4.378906 -0.570312 4.078125 -0.46875 C 3.773438 -0.363281 3.492188 -0.347656 3.234375 -0.421875 C 2.953125 -0.472656 2.722656 -0.609375 2.546875 -0.828125 C 2.472656 -0.929688 2.398438 -1.03125 2.328125 -1.125 C 2.296875 -1.164062 2.269531 -1.207031 2.25 -1.25 C 2.164062 -1.238281 2.101562 -1.210938 2.0625 -1.171875 C 2.019531 -1.140625 1.984375 -1.101562 1.953125 -1.0625 C 1.921875 -1.019531 1.882812 -0.988281 1.84375 -0.96875 C 1.550781 -0.757812 1.257812 -0.691406 0.96875 -0.765625 C 0.6875 -0.835938 0.472656 -1.03125 0.328125 -1.34375 C 0.265625 -1.488281 0.210938 -1.640625 0.171875 -1.796875 C 0.0976562 -2.109375 0.0507812 -2.414062 0.03125 -2.71875 C 0.0078125 -3.03125 0.00390625 -3.34375 0.015625 -3.65625 C 0.0351562 -3.851562 0.109375 -3.976562 0.234375 -4.03125 C 0.359375 -4.09375 0.484375 -4.085938 0.609375 -4.015625 C 0.742188 -3.941406 0.816406 -3.804688 0.828125 -3.609375 C 0.835938 -3.472656 0.84375 -3.34375 0.84375 -3.21875 C 0.832031 -2.726562 0.890625 -2.253906 1.015625 -1.796875 C 1.046875 -1.679688 1.082031 -1.578125 1.125 -1.484375 C 1.144531 -1.429688 1.175781 -1.398438 1.21875 -1.390625 C 1.269531 -1.390625 1.3125 -1.414062 1.34375 -1.46875 C 1.46875 -1.644531 1.5625 -1.832031 1.625 -2.03125 C 1.6875 -2.238281 1.742188 -2.453125 1.796875 -2.671875 C 1.796875 -2.691406 1.800781 -2.710938 1.8125 -2.734375 C 1.820312 -2.828125 1.84375 -2.925781 1.875 -3.03125 C 1.882812 -3.15625 1.90625 -3.28125 1.9375 -3.40625 C 2 -3.613281 2.164062 -3.695312 2.4375 -3.65625 C 2.65625 -3.644531 2.769531 -3.535156 2.78125 -3.328125 C 2.78125 -2.847656 2.832031 -2.375 2.9375 -1.90625 C 2.976562 -1.738281 3.03125 -1.570312 3.09375 -1.40625 C 3.15625 -1.25 3.242188 -1.109375 3.359375 -0.984375 C 3.492188 -0.859375 3.632812 -0.859375 3.78125 -0.984375 C 3.988281 -1.179688 4.125 -1.410156 4.1875 -1.671875 C 4.351562 -2.203125 4.429688 -2.742188 4.421875 -3.296875 C 4.421875 -3.335938 4.421875 -3.378906 4.421875 -3.421875 C 4.398438 -3.660156 4.394531 -3.890625 4.40625 -4.109375 C 4.414062 -4.421875 4.585938 -4.539062 4.921875 -4.46875 C 4.992188 -4.457031 5.0625 -4.429688 5.125 -4.390625 C 5.1875 -4.359375 5.234375 -4.300781 5.265625 -4.21875 C 5.523438 -3.644531 5.796875 -3.273438 6.078125 -3.109375 C 6.359375 -2.941406 6.613281 -2.878906 6.84375 -2.921875 C 7.070312 -2.960938 7.238281 -3.015625 7.34375 -3.078125 C 7.363281 -3.085938 7.378906 -3.09375 7.390625 -3.09375 Z M 7.390625 -3.09375 "/></g></g></g><g fill="#ffffff" fill-opacity="1"><g transform="translate(85.861187, 24.867355)"><g><path d="M 2.9375 -2.296875 C 2.820312 -2.054688 2.625 -1.785156 2.34375 -1.484375 C 2.0625 -1.191406 1.738281 -1.003906 1.375 -0.921875 C 1.019531 -0.847656 0.679688 -0.972656 0.359375 -1.296875 C 0.234375 -1.441406 0.140625 -1.609375 0.078125 -1.796875 C 0.0234375 -1.984375 0.00390625 -2.171875 0.015625 -2.359375 C 0.015625 -2.398438 0.015625 -2.460938 0.015625 -2.546875 C 0.015625 -2.734375 0.0234375 -2.953125 0.046875 -3.203125 C 0.0664062 -3.460938 0.101562 -3.691406 0.15625 -3.890625 C 0.21875 -4.097656 0.3125 -4.222656 0.4375 -4.265625 C 0.789062 -4.359375 0.984375 -4.234375 1.015625 -3.890625 C 1.015625 -3.773438 1.015625 -3.664062 1.015625 -3.5625 C 1.003906 -3.5 1 -3.445312 1 -3.40625 C 0.988281 -3.238281 0.976562 -3.078125 0.96875 -2.921875 C 0.96875 -2.796875 0.960938 -2.671875 0.953125 -2.546875 C 0.953125 -2.003906 1.078125 -1.679688 1.328125 -1.578125 C 1.578125 -1.472656 1.863281 -1.582031 2.1875 -1.90625 C 2.519531 -2.226562 2.734375 -2.492188 2.828125 -2.703125 C 2.929688 -2.921875 3.003906 -2.96875 3.046875 -2.84375 C 3.097656 -2.726562 3.0625 -2.546875 2.9375 -2.296875 Z M 0.953125 -5.4375 C 0.898438 -5.394531 0.835938 -5.363281 0.765625 -5.34375 C 0.691406 -5.332031 0.628906 -5.34375 0.578125 -5.375 C 0.535156 -5.40625 0.507812 -5.445312 0.5 -5.5 C 0.488281 -5.550781 0.484375 -5.617188 0.484375 -5.703125 C 0.484375 -5.710938 0.488281 -5.726562 0.5 -5.75 C 0.507812 -5.8125 0.523438 -5.878906 0.546875 -5.953125 C 0.617188 -6.128906 0.773438 -6.210938 1.015625 -6.203125 C 1.097656 -6.179688 1.160156 -6.144531 1.203125 -6.09375 C 1.253906 -6.039062 1.269531 -5.972656 1.25 -5.890625 C 1.1875 -5.710938 1.085938 -5.5625 0.953125 -5.4375 Z M 0.953125 -5.4375 "/></g></g></g><g fill="#ffffff" fill-opacity="1"><g transform="translate(88.644566, 24.867355)"><g><path d="M 4.6875 -2.171875 C 4.976562 -2.640625 5.148438 -2.9375 5.203125 -3.0625 C 5.253906 -3.1875 5.296875 -3.179688 5.328125 -3.046875 C 5.367188 -2.910156 5.28125 -2.601562 5.0625 -2.125 C 4.84375 -1.644531 4.566406 -1.273438 4.234375 -1.015625 C 3.910156 -0.753906 3.609375 -0.65625 3.328125 -0.71875 C 3.046875 -0.789062 2.84375 -0.988281 2.71875 -1.3125 C 2.601562 -1.632812 2.570312 -2.046875 2.625 -2.546875 C 2.625 -2.546875 2.625 -2.566406 2.625 -2.609375 C 2.632812 -2.691406 2.648438 -2.8125 2.671875 -2.96875 C 2.691406 -3.132812 2.707031 -3.300781 2.71875 -3.46875 C 2.726562 -3.644531 2.722656 -3.789062 2.703125 -3.90625 C 2.679688 -4.019531 2.628906 -4.0625 2.546875 -4.03125 C 2.347656 -3.914062 2.148438 -3.695312 1.953125 -3.375 C 1.765625 -3.0625 1.59375 -2.726562 1.4375 -2.375 C 1.28125 -2.03125 1.171875 -1.75 1.109375 -1.53125 C 1.085938 -1.457031 1.0625 -1.382812 1.03125 -1.3125 C 1 -1.21875 0.960938 -1.117188 0.921875 -1.015625 C 0.816406 -0.734375 0.625 -0.625 0.34375 -0.6875 C 0.195312 -0.726562 0.109375 -0.820312 0.078125 -0.96875 C 0.078125 -1.082031 0.078125 -1.191406 0.078125 -1.296875 C 0.078125 -1.367188 0.0703125 -1.429688 0.0625 -1.484375 C 0.0507812 -2.328125 0.03125 -3.175781 0 -4.03125 C 0.0078125 -4.125 0.0507812 -4.1875 0.125 -4.21875 C 0.207031 -4.257812 0.300781 -4.28125 0.40625 -4.28125 C 0.488281 -4.28125 0.566406 -4.257812 0.640625 -4.21875 C 0.722656 -4.175781 0.769531 -4.082031 0.78125 -3.9375 C 0.789062 -3.882812 0.796875 -3.832031 0.796875 -3.78125 C 0.804688 -3.757812 0.8125 -3.738281 0.8125 -3.71875 C 0.820312 -3.59375 0.828125 -3.488281 0.828125 -3.40625 C 0.828125 -3.28125 0.835938 -3.195312 0.859375 -3.15625 C 0.878906 -3.113281 0.914062 -3.113281 0.96875 -3.15625 C 1.019531 -3.207031 1.109375 -3.328125 1.234375 -3.515625 C 1.453125 -3.847656 1.71875 -4.128906 2.03125 -4.359375 C 2.320312 -4.566406 2.644531 -4.65625 3 -4.625 C 3.289062 -4.59375 3.488281 -4.4375 3.59375 -4.15625 C 3.632812 -4.007812 3.65625 -3.863281 3.65625 -3.71875 C 3.65625 -3.570312 3.644531 -3.425781 3.625 -3.28125 C 3.613281 -3.125 3.601562 -2.96875 3.59375 -2.8125 C 3.582031 -2.757812 3.570312 -2.710938 3.5625 -2.671875 C 3.507812 -2.128906 3.523438 -1.765625 3.609375 -1.578125 C 3.691406 -1.390625 3.816406 -1.328125 3.984375 -1.390625 C 4.160156 -1.453125 4.394531 -1.710938 4.6875 -2.171875 Z M 4.6875 -2.171875 "/></g></g></g><g clip-path="url(#e561c37e71)"><g clip-path="url(#3a27c55bb1)"><g clip-path="url(#eaeb43f5eb)"><path fill="#ffffff" d="M 63.761719 16.265625 C 63.671875 16.167969 63.519531 16.164062 63.421875 16.253906 C 63.328125 16.34375 63.324219 16.496094 63.414062 16.589844 C 63.972656 17.191406 64.46875 17.648438 64.996094 18.015625 L 65.011719 18.027344 C 65.539062 18.390625 66.089844 18.65625 66.765625 18.875 C 71.082031 20.269531 76.785156 18.394531 82.34375 16.566406 C 90.070312 14.023438 97.515625 11.574219 100.238281 18.355469 C 100.285156 18.476562 100.425781 18.535156 100.546875 18.484375 C 100.671875 18.4375 100.730469 18.296875 100.679688 18.175781 C 97.789062 10.984375 90.136719 13.5 82.195312 16.113281 C 76.707031 17.917969 71.082031 19.769531 66.910156 18.421875 C 66.28125 18.21875 65.769531 17.972656 65.28125 17.636719 L 65.269531 17.625 C 64.773438 17.28125 64.300781 16.84375 63.761719 16.265625 Z M 63.761719 16.265625 " fill-opacity="1" fill-rule="evenodd"/></g></g></g><g fill="#ffffff" fill-opacity="1"><g transform="translate(74.128091, 29.33453)"><g><path d="M 0.234375 -1.5625 L 0.859375 -1.5625 C 0.929688 -1.5625 0.992188 -1.550781 1.046875 -1.53125 C 1.109375 -1.507812 1.160156 -1.476562 1.203125 -1.4375 C 1.242188 -1.394531 1.273438 -1.34375 1.296875 -1.28125 C 1.328125 -1.226562 1.34375 -1.164062 1.34375 -1.09375 C 1.34375 -1 1.320312 -0.921875 1.28125 -0.859375 C 1.25 -0.804688 1.210938 -0.765625 1.171875 -0.734375 C 1.128906 -0.691406 1.078125 -0.660156 1.015625 -0.640625 L 1.390625 0 L 1.203125 0 L 0.84375 -0.625 L 0.40625 -0.625 L 0.40625 0 L 0.234375 0 Z M 0.859375 -0.78125 C 0.953125 -0.78125 1.023438 -0.804688 1.078125 -0.859375 C 1.140625 -0.921875 1.171875 -1 1.171875 -1.09375 C 1.171875 -1.1875 1.140625 -1.257812 1.078125 -1.3125 C 1.023438 -1.375 0.953125 -1.40625 0.859375 -1.40625 L 0.40625 -1.40625 L 0.40625 -0.78125 Z M 0.859375 -0.78125 "/></g></g></g><g fill="#ffffff" fill-opacity="1"><g transform="translate(77.063635, 29.33453)"><g><path d="M 0.6875 -1.5625 L 0.84375 -1.5625 L 1.5 0 L 1.3125 0 L 1.140625 -0.4375 L 0.40625 -0.4375 L 0.21875 0 L 0.046875 0 Z M 1.078125 -0.59375 L 0.765625 -1.328125 L 0.46875 -0.59375 Z M 1.078125 -0.59375 "/></g></g></g><g fill="#ffffff" fill-opacity="1"><g transform="translate(80.032658, 29.33453)"><g><path d="M 0.234375 -1.5625 L 0.375 -1.5625 L 1.03125 -0.71875 L 1.671875 -1.5625 L 1.828125 -1.5625 L 1.828125 0 L 1.65625 0 L 1.65625 -1.28125 L 1.03125 -0.453125 L 0.40625 -1.28125 L 0.40625 0 L 0.234375 0 Z M 0.234375 -1.5625 "/></g></g></g><g fill="#ffffff" fill-opacity="1"><g transform="translate(83.515023, 29.33453)"><g><path d="M 0.234375 -1.5625 L 1.3125 -1.5625 L 1.3125 -1.40625 L 0.40625 -1.40625 L 0.40625 -0.890625 L 1.125 -0.890625 L 1.125 -0.734375 L 0.40625 -0.734375 L 0.40625 -0.15625 L 1.328125 -0.15625 L 1.328125 0 L 0.234375 0 Z M 0.234375 -1.5625 "/></g></g></g><g fill="#ffffff" fill-opacity="1"><g transform="translate(86.37245, 29.33453)"><g><path d="M 0.625 0.015625 C 0.53125 0.015625 0.453125 0.00390625 0.390625 -0.015625 C 0.328125 -0.0351562 0.273438 -0.0625 0.234375 -0.09375 C 0.179688 -0.125 0.132812 -0.164062 0.09375 -0.21875 L 0.203125 -0.328125 C 0.234375 -0.285156 0.265625 -0.253906 0.296875 -0.234375 C 0.335938 -0.203125 0.382812 -0.175781 0.4375 -0.15625 C 0.488281 -0.144531 0.550781 -0.140625 0.625 -0.140625 C 0.738281 -0.140625 0.828125 -0.164062 0.890625 -0.21875 C 0.953125 -0.269531 0.984375 -0.335938 0.984375 -0.421875 C 0.984375 -0.472656 0.96875 -0.515625 0.9375 -0.546875 C 0.914062 -0.578125 0.882812 -0.601562 0.84375 -0.625 C 0.8125 -0.644531 0.769531 -0.660156 0.71875 -0.671875 C 0.664062 -0.691406 0.613281 -0.710938 0.5625 -0.734375 C 0.507812 -0.753906 0.457031 -0.769531 0.40625 -0.78125 C 0.351562 -0.800781 0.304688 -0.828125 0.265625 -0.859375 C 0.222656 -0.898438 0.191406 -0.941406 0.171875 -0.984375 C 0.148438 -1.035156 0.140625 -1.09375 0.140625 -1.15625 C 0.140625 -1.21875 0.148438 -1.273438 0.171875 -1.328125 C 0.191406 -1.378906 0.222656 -1.421875 0.265625 -1.453125 C 0.304688 -1.492188 0.359375 -1.523438 0.421875 -1.546875 C 0.484375 -1.578125 0.554688 -1.59375 0.640625 -1.59375 C 0.710938 -1.59375 0.773438 -1.582031 0.828125 -1.5625 C 0.890625 -1.539062 0.941406 -1.515625 0.984375 -1.484375 C 1.023438 -1.453125 1.0625 -1.421875 1.09375 -1.390625 L 0.984375 -1.28125 C 0.960938 -1.300781 0.929688 -1.328125 0.890625 -1.359375 C 0.859375 -1.367188 0.820312 -1.382812 0.78125 -1.40625 C 0.738281 -1.425781 0.691406 -1.4375 0.640625 -1.4375 C 0.585938 -1.4375 0.539062 -1.425781 0.5 -1.40625 C 0.457031 -1.394531 0.421875 -1.375 0.390625 -1.34375 C 0.359375 -1.320312 0.332031 -1.296875 0.3125 -1.265625 C 0.300781 -1.234375 0.296875 -1.195312 0.296875 -1.15625 C 0.296875 -1.09375 0.316406 -1.039062 0.359375 -1 C 0.398438 -0.96875 0.453125 -0.9375 0.515625 -0.90625 C 0.578125 -0.882812 0.644531 -0.863281 0.71875 -0.84375 C 0.789062 -0.832031 0.859375 -0.804688 0.921875 -0.765625 C 0.992188 -0.734375 1.050781 -0.691406 1.09375 -0.640625 C 1.132812 -0.585938 1.15625 -0.515625 1.15625 -0.421875 C 1.15625 -0.359375 1.140625 -0.300781 1.109375 -0.25 C 1.085938 -0.195312 1.054688 -0.148438 1.015625 -0.109375 C 0.972656 -0.0664062 0.914062 -0.0351562 0.84375 -0.015625 C 0.78125 0.00390625 0.707031 0.015625 0.625 0.015625 Z M 0.625 0.015625 "/></g></g></g><g fill="#ffffff" fill-opacity="1"><g transform="translate(89.062484, 29.33453)"><g><path d="M 0.234375 -1.5625 L 0.40625 -1.5625 L 0.40625 -0.875 L 1.28125 -0.875 L 1.28125 -1.5625 L 1.4375 -1.5625 L 1.4375 0 L 1.28125 0 L 1.28125 -0.71875 L 0.40625 -0.71875 L 0.40625 0 L 0.234375 0 Z M 0.234375 -1.5625 "/></g></g></g></svg>